<?xml version="1.0" standalone="no"?>
<!DOCTYPE svg PUBLIC "-//W3C//DTD SVG 20010904//EN"
 "http://www.w3.org/TR/2001/REC-SVG-20010904/DTD/svg10.dtd">
<svg version="1.0" xmlns="http://www.w3.org/2000/svg"
 width="64.000000pt" height="64.000000pt" viewBox="0 0 64.000000 64.000000"
 preserveAspectRatio="xMidYMid meet">

<g transform="translate(0.000000,64.000000) scale(0.100000,-0.100000)"
fill="#000000" stroke="none">
<path d="M409 611 c-24 -15 -117 -102 -206 -192 -129 -132 -163 -172 -172
-205 -34 -128 115 -256 232 -198 38 19 327 303 327 321 0 35 -48 0 -175 -128
-179 -180 -196 -189 -274 -149 -47 24 -83 89 -74 135 8 43 355 390 400 400 63
13 115 -39 105 -105 -3 -16 -56 -77 -146 -167 -120 -121 -146 -143 -172 -143
-36 0 -54 16 -54 48 0 18 32 58 115 142 63 65 115 123 115 129 0 6 -8 11 -18
11 -18 0 -222 -200 -241 -237 -33 -64 7 -133 77 -133 51 0 86 27 229 171 105
107 143 161 143 206 0 33 -36 86 -71 105 -48 25 -88 22 -140 -11z"/>
</g>
</svg>
