<?xml version="1.0" standalone="no"?>
<!DOCTYPE svg PUBLIC "-//W3C//DTD SVG 20010904//EN"
 "http://www.w3.org/TR/2001/REC-SVG-20010904/DTD/svg10.dtd">
<svg version="1.0" xmlns="http://www.w3.org/2000/svg"
 width="512.000000pt" height="512.000000pt" viewBox="0 0 512.000000 512.000000"
 preserveAspectRatio="xMidYMid meet">

<g transform="translate(0.000000,512.000000) scale(0.100000,-0.100000)"
fill="#000000" stroke="none">
<path d="M2425 5106 c-224 -52 -390 -185 -486 -390 -82 -176 -78 -402 10 -581
85 -172 224 -292 406 -352 69 -23 97 -27 205 -27 108 0 136 4 205 27 183 60
322 182 406 353 47 97 69 190 69 299 0 109 -22 202 -69 299 -113 231 -328 372
-586 382 -64 2 -122 -1 -160 -10z"/>
<path d="M2485 3238 c-260 -27 -489 -212 -572 -461 -24 -73 -27 -97 -27 -217
0 -120 3 -144 27 -217 72 -216 269 -396 487 -448 93 -21 240 -19 334 5 215 55
392 221 470 439 29 80 31 96 31 221 0 125 -2 141 -31 221 -109 306 -401 491
-719 457z"/>
<path d="M2425 1356 c-224 -52 -390 -185 -486 -390 -82 -176 -78 -402 10 -581
85 -172 224 -292 406 -352 69 -23 97 -27 205 -27 108 0 136 4 205 27 183 60
322 182 406 353 47 97 69 190 69 299 0 109 -22 202 -69 299 -113 231 -328 372
-586 382 -64 2 -122 -1 -160 -10z"/>
</g>
</svg>
