<?xml version="1.0" standalone="no"?>
<!DOCTYPE svg PUBLIC "-//W3C//DTD SVG 20010904//EN"
 "http://www.w3.org/TR/2001/REC-SVG-20010904/DTD/svg10.dtd">
<svg version="1.0" xmlns="http://www.w3.org/2000/svg"
 width="512.000000pt" height="512.000000pt" viewBox="0 0 512.000000 512.000000"
 preserveAspectRatio="xMidYMid meet">

<g transform="translate(0.000000,512.000000) scale(0.100000,-0.100000)"
fill="#000000" stroke="none">
<path d="M3249 3826 c-19 -7 -45 -19 -57 -28 -12 -8 -358 -347 -770 -754 -411
-406 -840 -830 -953 -942 l-206 -203 -401 418 c-221 230 -423 435 -449 455
-130 102 -310 60 -389 -92 -29 -55 -26 -163 6 -222 16 -30 201 -229 512 -551
268 -278 512 -527 541 -554 59 -54 108 -73 183 -73 105 0 69 -33 1204 1090
580 574 1065 1057 1078 1074 69 94 49 256 -41 332 -72 61 -174 80 -258 50z"/>
<path d="M4777 3816 c-20 -8 -52 -25 -70 -40 -17 -14 -452 -442 -966 -950
l-935 -925 -63 59 c-103 96 -204 113 -315 53 -85 -46 -128 -121 -128 -223 0
-70 17 -117 61 -169 81 -94 295 -302 328 -317 20 -10 64 -20 98 -22 121 -8 57
-65 1218 1083 578 572 1060 1053 1072 1071 92 133 22 328 -136 382 -45 16
-117 14 -164 -2z"/>
</g>
</svg>
