<?xml version="1.0" standalone="no"?>
<!DOCTYPE svg PUBLIC "-//W3C//DTD SVG 20010904//EN"
 "http://www.w3.org/TR/2001/REC-SVG-20010904/DTD/svg10.dtd">
<svg version="1.0" xmlns="http://www.w3.org/2000/svg"
 width="512.000000pt" height="512.000000pt" viewBox="0 0 512.000000 512.000000"
 preserveAspectRatio="xMidYMid meet">

<g transform="translate(0.000000,512.000000) scale(0.100000,-0.100000)"
fill="#000000" stroke="none">
<path d="M2563 3682 c-1404 -790 -2553 -1439 -2553 -1442 1 -8 1617 -603 1628
-599 9 3 1387 1292 2336 2184 93 88 166 153 161 145 -5 -8 -433 -588 -952
-1288 l-943 -1272 2 -702 3 -702 449 524 c247 289 452 529 456 533 4 4 267
-89 586 -207 l579 -214 8 26 c9 31 797 4445 794 4448 -1 1 -1151 -645 -2554
-1434z"/>
</g>
</svg>
