<?xml version="1.0" standalone="no"?>
<!DOCTYPE svg PUBLIC "-//W3C//DTD SVG 20010904//EN"
 "http://www.w3.org/TR/2001/REC-SVG-20010904/DTD/svg10.dtd">
<svg version="1.0" xmlns="http://www.w3.org/2000/svg"
 width="64.000000pt" height="64.000000pt" viewBox="0 0 64.000000 64.000000"
 preserveAspectRatio="xMidYMid meet">

<g transform="translate(0.000000,64.000000) scale(0.100000,-0.100000)"
fill="#000000" stroke="none">
<path d="M220 624 c-142 -52 -229 -183 -218 -327 26 -318 443 -407 597 -127
33 60 36 71 36 150 0 78 -3 91 -34 148 -58 106 -144 161 -265 168 -50 3 -84
-1 -116 -12z m10 -173 c15 -29 12 -87 -5 -101 -25 -20 -49 -7 -59 32 -15 61
37 118 64 69z m236 -7 c14 -20 15 -33 8 -62 -17 -68 -74 -51 -74 22 0 66 35
88 66 40z m-146 -199 c58 0 122 4 143 8 35 7 37 6 37 -17 0 -29 -41 -81 -79
-100 -72 -37 -166 -27 -225 25 -34 29 -60 81 -48 94 3 3 20 2 37 -2 16 -4 77
-8 135 -8z"/>
</g>
</svg>
